# xmcd CD database file
#
# Track frame offsets:
#	150
#	25610
#	60687
#	95788
#	141395
#	165088
#	194310
#	228531
#	252992
#	278615
#	323523
#
# Disc length: 4691 seconds
#
# Revision: 0
# Processed by: cddbd v1.5.2PL0 Copyright (c) Steve Scherf et al.
# Submitted via: CDex 1.51
#
DISCID=8f12510b
DTITLE=Sonny Rollins - 4 Originals CD 2
DYEAR=2010
DGENRE=Jazz
TTITLE0=I'm An Old Cowhand (Way Out West)
TTITLE1=Solitude
TTITLE2=Come, Gone
TTITLE3=Wagon Wheels
TTITLE4=There Is No Greater Love
TTITLE5=Way Out West
TTITLE6=Dig (Dig, with Miles Davis)
TTITLE7=It's Only A Paper Moon
TTITLE8=Denial
TTITLE9=Bluing
TTITLE10=Out Of The Blue
EXTD=YEAR: 2010
EXTT0=
EXTT1=
EXTT2=
EXTT3=
EXTT4=
EXTT5=
EXTT6=
EXTT7=
EXTT8=
EXTT9=
EXTT10=
PLAYORDER=
